<svg xmlns="http://www.w3.org/2000/svg" xmlns:xlink="http://www.w3.org/1999/xlink" id="Layer_1" width="458.833" height="350" x="0" y="0" enable-background="new 0 0 458.833 350" version="1.1" viewBox="0 0 458.833 350" xml:space="preserve"><metadata><?xpacket begin="﻿" id="W5M0MpCehiHzreSzNTczkc9d"?><x:xmpmeta xmlns:x="adobe:ns:meta/" x:xmptk="Adobe XMP Core 5.0-c060 61.134777, 2010/02/12-17:32:00"><rdf:RDF xmlns:rdf="http://www.w3.org/1999/02/22-rdf-syntax-ns#"><rdf:Description xmlns:xmp="http://ns.adobe.com/xap/1.0/" xmlns:xmpGImg="http://ns.adobe.com/xap/1.0/g/img/"><xmp:MetadataDate>2017-03-14T22:54-04:00</xmp:MetadataDate><xmp:CreatorTool>Adobe Illustrator CS5.1</xmp:CreatorTool><xmp:ModifyDate>2017-03-14T22:54-04:00</xmp:ModifyDate><xmp:CreateDate>2017-03-14T22:54-04:00</xmp:CreateDate><xmp:Thumbnails><rdf:Alt><rdf:li rdf:parseType="Resource"><xmpGImg:width>256</xmpGImg:width><xmpGImg:height>188</xmpGImg:height><xmpGImg:format>JPEG</xmpGImg:format><xmpGImg:image>/9j/4AAQSkZJRgABAgEASABIAAD/7QAsUGhvdG9zaG9wIDMuMAA4QklNA+0AAAAAABAASAAAAAEA AQBIAAAAAQAB/+4ADkFkb2JlAGTAAAAAAf/bAIQABgQEBAUEBgUFBgkGBQYJCwgGBggLDAoKCwoK DBAMDAwMDAwQDA4PEA8ODBMTFBQTExwbGxscHx8fHx8fHx8fHwEHBwcNDA0YEBAYGhURFRofHx8f Hx8fHx8fHx8fHx8fHx8fHx8fHx8fHx8fHx8fHx8fHx8fHx8fHx8fHx8fHx8f/8AAEQgAvAEAAwER AAIRAQMRAf/EAaIAAAAHAQEBAQEAAAAAAAAAAAQFAwIGAQAHCAkKCwEAAgIDAQEBAQEAAAAAAAAA AQACAwQFBgcICQoLEAACAQMDAgQCBgcDBAIGAnMBAgMRBAAFIRIxQVEGE2EicYEUMpGhBxWxQiPB UtHhMxZi8CRygvElQzRTkqKyY3PCNUQnk6OzNhdUZHTD0uIIJoMJChgZhJRFRqS0VtNVKBry4/PE 1OT0ZXWFlaW1xdXl9WZ2hpamtsbW5vY3R1dnd4eXp7fH1+f3OEhYaHiImKi4yNjo+Ck5SVlpeYmZ qbnJ2en5KjpKWmp6ipqqusra6voRAAICAQIDBQUEBQYECAMDbQEAAhEDBCESMUEFURNhIgZxgZEy obHwFMHR4SNCFVJicvEzJDRDghaSUyWiY7LCB3PSNeJEgxdUkwgJChgZJjZFGidkdFU38qOzwygp 0+PzhJSktMTU5PRldYWVpbXF1eX1RlZmdoaWprbG1ub2R1dnd4eXp7fH1+f3OEhYaHiImKi4yNjo +DlJWWl5iZmpucnZ6fkqOkpaanqKmqq6ytrq+v/aAAwDAQACEQMRAD8A9U4q7FXYq7FXYq7FXYq7 FXYq7FXYq7FXYql+s+Y/L+iQ+vrOp2umw9RJdzRwA/IyFa4qxuT81/L0o/3C2Wpa8T0awtHWE1/l ubr6tbN9EuSECVQsvmr8x740sdH0/RoT0m1G4kvJx87a1WKP7rnLBhKLQkmjear8H9Mea750brba YkWmxfQ8Ykuh/wAj8mMIW1PyVoWm6R+ZNzHZJIPW0YPNLPNNcyuwuqAvLO8kjbeLZXliByUPTcqS 7FXYq7FXYq7FXYq7FXYq7FXYq7FXYq7FXYq7FXYq7FXYq7FXYq7FXYqk2uedPKOgsE1nWbOwmanC CedElevQJETzY/6oxVIpPzSs5zx0PQ9W1cn7MwtvqMHz9TUGteS+6BvauTGMlbQkmv8A5nagv7m3 0ry/G3RpWn1Wenui/UIkb/ZuPnkxhKLY1BdLrXm3UPLGq+a9VvtT023gurq0t5k0234XBb4FFisE x4gKW5yNs67ntMY43S2yHSvJvlTSpzc2GlW0N2273npq1wx8WmflI30tlgiAhOckrsVdiqW6F/5M 6X/tiD/qLzGzc0hn2UpdirsVdirsVdirsVdirsVdirsVdirsVdirsVdirsVdirsVY7q35i+RtJuD a3ut2ovh/wAeEMguLo/K2h9SY/QuNKlM35mXVyCNC8s6nffy3F4iaZB/shdslyPogOTGORRaFl1P 8z9QO9zpegwnrHbxTalOPlPMbSIH5wNlgw962hJPJ5vanXNc1bWeW7RTXRtoD7G3sRaQsvs6tlgx RCLR+j+WfLuioV0jTLWwB+0beFIyxPUsygFifE5MABUywq8o/LrR/wAy7DzrLPrkWpfoOWLUEX65 fx3cSl7xZbL939ZmYFYAy8gtd6E06VRBtUv8oeR47X8+/MmpjUbl723t7e6mZivCZb/1fUhZKbRp wj9PfbgK1xjH1FL2fLUOxV2KuxVLdC/8mdL/ANsQf9ReY2bmkM+ylLsVdirsVdirsVdirsVdirsV dirsVdirsVad0RGd2CooJZiaAAbkknFWK335p+QbSZrddYiv7tTxa00xZNRnDeDRWazup+YwgEqg JPzE1+7PHRfKl0yn7N1qs8Onwn/YJ9auR/soBkxikUWhZZ/zM1AEXOs2WjRnoml2nrzj/o4vWkiP /SMMsGHvW0JJ5E0u8odbu9Q11u66jdyyQH52sZitf+SWTGKIRacabpGk6XB9X0yygsYNv3VtEkKb dPhQKMmAqLwq7FXYq7FXYq7FXm+nQak/5t+eJrO5gtFttH06aeedDLRVWcjioeNR0ryY0Hgcx5z4 ZJXz/nNpdwyad5VsbjzdrgRfWh04AWkTso/v7xv3Ma18C2WcfduimK6f+XX5u6x5+XUfMWvXekaA 6Ld3OmaVqV6Ig7OwW0RmkrX4eUrKAoBontERkTul7cqhVCitAKCpJP3nLkN4qluhf+TOl/7Yg/6i 8xs3NIZ9lKXYq7FXYq7FXYq7FXYq7FXYq7FXYq7FXYq8Y8s+UdG1OC7TzIkuu6rpl/dWV02qzzXq coJj6MiwTu8MfOAxyDgg+1mTjiCLQWbWtpa2kCwWsKW8CbJFEoRB8lUADLkKuKuxV2KuxV2KuxV2 KuxVQubyC3A5klz9mNRVj8hirz3zP+ZupDU5NB8sWi6hrUVBdANS3sw3Q3c9GAbuIkBc+2IBJoK8 u0Xy1o/nbzHe6hrvma41uTULeKe40qGG6062dIHaJdpCrSxwvVVoaq1eW5xhijI2TaWa2v5ZeUrG MLpkd3prqD6UtnfXsLoT3XjNT8Mv8GPchMLXzF528o0a7km81+XU/vCQg1a2UD7QKhEu1FNwQr+5 yuWIjlur0Py95l0LzHpkep6JeR3tlJsJIzurDco6mjI4rurAEZWDaplhVLdC/wDJnS/9sQf9ReY2 bmkM+ylLsVdirsVdirsVdirsVdirsVdirsVdirsVed3cI0v8y9Sg+zB5hsotShHTlc2XG0uj/wAi WtcvwnogpxmQh2KuxV2KuxV2KuxV2KoK8vmVzBb0M37bndUr+tvbCArzvzj5g1G51RvKXlu4MWqy IsuuaxTk1lbOPhCnp9YlH92v7K/F4ZICzQVW0PQtM0PTY9P02ERQR1Y1NXd2+1JI53Z2PUnMiMQB QVjX5feR7jy/Clxq0yyaosc1tCsUvqW8cEtw1yRHWKB+TO/xcuXQUIG2VYsfDz5qzXflx4mvyNPv 6ZcrgCSRxbbrUEYqxu28oi38xzXeg3Umh6xeKZrW8iQtBNJHvLa3dueKzoytzT9taPRgFUZi5cYu wrPvKWueYr8XFn5h0htN1KzCc7iI+pY3KvUCS2kNHH2fijcBl261rlYJ6qj9C/8AJnS/9sQf9ReU ZuaQz7KUuxV2KvG/za/KXzT5p83rrejppSqlhaWsMt5cTQzi5ttSivRIPTtp6fuomiU8q/Ge3VV7 IK03698VdirsVdirsVdirsVdirsVdirCPzPhNqugeYUH/HJ1KKK6b/l01EfU5K+yyyxSH/UyeM0U FF5mIdirsVdirsVdirsVQWo33oBYYz+/k6GleK/zU7+wwgKxLzl5nPlzROdpbm41a8kFrpNq1CZr uavDnQg8RQu5/lByRVK/K3lo6NprQzzfWdQuXa51G+NOdxdS7ySnYACuyr2UAZdEUFToQRceJXkP 8rf9eFWp7i2toTJPIkEK0Bd2CKOw3NBjaua5gW4jt2cCeVWeOPuVj4hj8hzX78bVUxVJ/MOp/Uvq z28Zn1C2kW9jjU0Kw27VnYtQ8Q8XKMfzFqeJEJ8qV6QrKyhlIKkVBG4IOUKl2hf+TOl/7Yg/6i8x s3NIZ9lKXYq7FXh//OS2vefbGfyfB5Vs5JAusWk0k3NYo5rtpOFlZ1YqGErcy/ZaLy6jFXtVjcm6 sre6MMluZ40lMEw4yRl1DcHXsy1oRiqtirsVdirsVdirsVdirsVdiqV+atCj1/y1qmiSNwXUbWa2 Em9UaRCquKb1RiGGKsR8pavLrHlnTdRnXhdTwIbuPpwuFHCdP9hKrL9GZsTYYptkldirsVdirsVQ l9qUVsCqgyz7UiX32HI9sVQUEDyc5nf99IfjkA7eCV7Dtkwrz3T5h5o843XmNvj0nRTLpfl8bEO4 PG9uwd683X0kIP2VPjksYvdWU5arsVSHz1Z3F55V1C0tbRr26niMdvCnCvNtg1ZGRRTxrkMguKpP qR8y6re/XtDrbNHKlrym4fBDFE09worzAaW4McDbMFKV+IChibO4VPrfUri00S1kuoJv0hNSOGzm eN55JTUhWeP4K0HJiNlFfDJg0FRWm6cbeOWS6YT3118V3LT4T1pGgPSNAaKPpNWJJICsp8pyc/LO mVNXjto4pCd/jiURv4/tKcxlVNC/8mdL/wBsQf8AUXmNm5pDPspS7FXYq8y/PieC3sPJc88ixQRe b9FeWVyFREWZizMx2AA3JOKs+0zXNP1KWaK1MpaBY3b1YZYQUlLBHT1VTmp9NqMu2KvMfzW/5yM8 ueRLyKztIYPMN18QvbW0uwJrYhgo9VVilRQSQPicNXtir0HyXreu635ft9U1rRv0DdXXxxaa8/1i VISAUMx9OII7dSm/Hua1AVTzFXYq7FXYq7FXYq7FXYq810SL9GeZ/M+gnaOK8Gq2Sn/ln1QGZyB4 fXEucycJ2YlPsuV2KuxVbJIkaF3YKi7liaAYql81/JNURcoYB1mKtyYf5IpsPc4aVQtoklkDopSC IniD1dzsXau5wqx/8ztfu9L8uCz0yQR65rkyaZpTb1SWfZ5tqmkMfKSviBgl3d6qejaTZ6PpNppd kvC1s4lhiG1SEFKtSlWbqT45kAUqMwq7FXYqoXNxaWFpJcSkRQR1d+KkkljX4VUVZmY7ACpJ8cBN KhNNs7iSc6nfrxvJFKQQGh+rwkg+nUVHNioMhHUgDcKMAHUqmWSVvTvMtjo+gW8bpJd6jeXd7Hp2 l2y87q5kW7lqsaVHwr1Z2IVRuxAzEnIBWWeTPK+t2+o3HmPzDNGurXkC20WmW1Gt7S3DmQR+qQHm lLGrvsvZVpu2JOfEWTMMgrsVSXzT5z8t+VrNLrW71bb1m4WtuoaW4nk/kggjDSytv0VTTqdsIFq+ ffzZ/N7zPr135eg0fyfdNbaXrdhqqrNKn1l2tm9SOOeOH1VtRJXrIxNNyBlhwy7lpSvp/PPnu+uG 8zeYpNBS5hWJvLuic7RzDEzsnqzTr6kwBmYNxXgT0y7HpgeZZAI3SPJt5oGmw6doGqrBZwzR3H1a 707TbiN5YWDxvKY7e3nkZGAKs0pI28MsOkj0K8LNrb83fOWj7+Y9Ei1ewB+PUNELRzouwBexuGfl 13Mc5P8Ak5TPTSHLdBD0Dyn568p+bbQ3OgalFeBADNAKpPFy6erC4WRK9uS79sxkJ9irsVdirsVd irsVdirAvO0Q07zv5d1cCkWpx3GiXbf5fE3loW/1fQmUe75bhO6CmOZSHYqhp75EYxRL6046ovRf 9Zu368aVCshJE124dl3VR9hT/kr3Pud8lSrZmYqC5CBjSNG/4k/y8MVVElt0UKsi0Heo/E4VeYC7 /wAT/mfc6krc9K8sxS2OnkVo11KQtzMK7MCVaGo7xnBj3lfcrL8yFdirsVWySRxxtJIwSNAWd2IA AHUknFUqs0bVrlNRmFLCE8tNhYEczSn1lwfH/da9h8XU0WI33VN8kqVfXtW1fVZNB8q26X2qxAG+ u5SRY2Ct0NzIu5kP7MKfG3U8V+LKcuYR96gPSPI35eaT5UheYSNqOuXQP6Q1mcATSlnMjJGo+GGH mxKxJsOpq1WOulIk2WTKsirsVef+efzKnsr6Ty95Yjju9eQL9du5gWtLBXFR63EqZJmU1WFSDT4m KinK3FiMzskB5kLKWTVZyLmW+1yZf9yvmC5KvNGrUYQxbcI61qkSKEQfERuOWfDGI7D5sqYZ5vh1 OPzlBoHl65uLe5m0tZraCK8MKLcC9Ba5mRpF9X936hfZmfuDSoryA8VDuQXpt5Y2l5F6VzGJFB5K dwysOjIwoysOzKajMki2SX/XZdKf072b17BRUXjEepAv/Lx0qn/Fv/BdCxjdc1R6ajp72zXSXUTW qHi84kUxqdtiwNAfiGS4gtsX1+38vWl1DrkF/HYXhrJFPb3KWs7bnnJbShl+Ov2kNUk6OO4pyRge aDTMvK/57w6f6Nt5rvIL3TpCEg8w24Ecq70/06z2ZKEHlLEvEH7SpQnMLJircGwxL2a2uba6t4rm 1lSe2nRZIZ4mDo6MKqystQQRuCMpQqYq7FXYq7FXYqxT80bCe68kahcWqGS+0r09WskGzNNp8i3I jH/GURGP5NhBoqhoL+0msIr+OQG0mjWaOXsUcBlI+YOZzFDvLc3PTlbwHt0kYfP9kfj8sICrDFDC AI6xk/ZVO5+R2+nJK16L/wB5PKRx3oKUA+dOvvgVdBAvIysvxt9nluQvzPfCqReftfvNJ0L0tMAf XdVlTTtFjPQ3Vx8KuevwxLylb2XITNBUl8u6HZ6LHPptmTJbWBjsoJ2+1III1MrN/lNdSTs3+UTl uGNBU4y1XYq7FUBruh6drmmvpuoxmWzkeN5IwxXl6UiyBSRvQlN/bBKIIoqjJpooYnmmdYoYlLyS OQqqqipZidgAMKoLQtH8wee25adJLo3lE7Sa2Bwu70Hqtgrj93HT/j4Yb/7rB+0MTNqK2ikB655f 8vaL5e0qDStGtEsrC3FI4Yx1J+07sas7sd2ZiSTuTmCSlMcVdirzv81PzDfRwnl7R7qK21u8QSXO oSlfT0+1YlfXYP8AC0shBWFD1NWPwqQbMePiPkoeYnWNC0bTo7LT50FzcM3om4LFpJXPOWeV3o0h 3Lua8mO3UjNjxRiKDO2SaJ5dv20lBBWydiX9W8RZpJeXxNK6RSIKyE1+0KfyjpkfEobLadDyxZOs H1mWaR4hVzHI8Ku225EZU0qPs1p88iZkqixoukC6W7+pwm6UUSdkVnUUI+FiCV2PbIkqqx2GnW3r PFbww+qWadlRV5E7sXIArXvXAhiNtc3Vuy22nyyWnlKaQR2+olQXiLHiIrfn9m2dqenKykD7KfAU ZYfcrLLDTLCwRltYRGZCDLISWkkYbcpJGLO7f5TEnJgKkusaHp9reHVxp8N3bnfULZoVkdQP+PiE cWYutPjRftjcfEKMCFQK+SW07/ch5F1a40JZ/wB8bGymA06YuK+okEiXFtGzCnxCFlp+yeuQliBW k00rzj+YsMn1b65YaldopZ9N1SBtPu6D9r6xatPDIn+VHAR712FfhdyKTb/lcC6fNDbeY9Bu9Pnn 2jezeLUY3PfgkRS7f6LfIHGQhkWjfmJ5I1m5W0sNYt2v3+zp8zG3u/8ApGnEc3/CZClZFirsVcQG BBFQdiD0IxV5D5Nia2tp/Lsrcv8AC1zLpyIevpxuWs2P/Rm8J+nM3CbDEsjeU8uEY5P38F+f9MtV uOIKSxPJz9pz1/sGKrB++ev+6kO3+Uw7/IYqrYqwvyiP8V+arnzg/wAWj6YJdN8sg/ZkNeN5fDx9 R19KM/yqT+1lV2bVfpjiS2ecfZuZ7i4T/VnneVfwfrmVDkqLySuxV2KoDWNb0/SLZZ7t25SusNtb xKZJ55n2SGGJatJIx6KowSkALKpt5b/LLUdflTVPPMCxaerB7HypyEkY4mqyaiykpO9RUQisa9+Z 6a/LnMthyTT1YAAUGwHQZjpdirsVYZ+YP5oaH5QjSzAOo+ZLwcdL0SAgyyuwPFpT9mGIcSWkf9kG laUwxiSaCvMPLHlPUrmVdeubq31DVdUla51bWX5ScmNFMdpGKBYwq+mh5CiqNmpTM+IEBtuWQZH5 b0jT3vbzX47dVa9AgtJD8TNaIdn5GppM3xgA048dq1yN2bVGv5eigYzaPKdNn3PpxjlauT/vy3qq 7ncsnFz/ADYKVUtNXP1lLHUYhaX7g+kteUM1NyYZCF5EAVKEBh4cfiLaplhSkMkR8xSlXP8Azr8T ENH/AMtzr4n/AJZlPb/dh/yPtjmhO5oIZoXgmRZIZFKSRMAVZWFCpB2IIwqlWmyzafeDR7p2kiYF tLuXNWeNRVoHY9ZIh0J3ZN9yrHAFTjClIL2VPLQe7UD9CyScrmAH44JJW3eBBUuHdt4l+KpqgJPE jkhRkgfzZZxSnja6O5EtrMvB7uQUossb/EtvUE0IrJQ/sNg5qrWXl+80cyHSJo5klbnNFfAtM58D eL+9P+tKsje+GqVA+Z9Y0eO2itfNOiC6W4f07e2VYb4TSH9i3gJFxK3+rDUdcEiOqs2/KvR9e0zQ 7qPU45rS0mujLo+lXMxuZ7O09NFEUkpZ+siu4jDMIwQoO1BiSq9mLM8CuxV5prmmpZ/mdcFXMK+Y dNW5hkU/8fOnOIJ6g7HlDcW+3+QaZfgl0QUesF7AvERJKo7o3Fj81b/mrMm0KcsspojQTRp+2wUs aeA4csNqviuLZj6aOAw29P7JA/1TQ4VYn53vrzVb238j6PM0OoarGZdVvI+tnpgbjLID2km/uovc lv2crmegVmunafZabYW+n2MSwWdpGsNvCgoqRoOKqPkBiArCNC/44mn9/wDRof8Ak2Myo8gqOwq7 FUrvNXupdTTQtCtTqvmGYBhaK3GK3jP+77yajCGIdq/E3RVJyvJlEQtM88kflra6HcfprV5xq/mq VSsmouvGK3RusFlEa+jH2J3d+rMdgNdkyGR3ZM1ytXYqp3V1bWlvLc3UyW9tCpkmnlYIiIoqWZmo AAOpOKvKNY/OCLXWltfK+p2ulaQh43Pma8eJXYD7QsbeU/F/xmmHD+VX65OML5qxryf5Y0nVdTut dFuJ9DdZLewku+U9xfu9Fub+5klJd/UK+mnP9gbcVahyIDuZBlnmAPPBBotueD6iTFKyfCY7RADc OKbj4SI1I+yzqckVTdESNFjjUIiAKiKKAAbAADClvFVC9sLW+tntrqISwvSqmoIINVZWFCrKd1YG oO4xKCxnU7u7tbldBvLppNNlCvdaruJYbZywWG4ZRRTKyFFm2+HlWjgM0CejG2XRRRRRpFEixxxg KiKAFVQKAADoBkkWuoMVtC6lpsF/atbyFkNQ8UyEB45ENUkQkEclbfcU7EEbYlNpYuvvap9T1CKu tD4YbWD/AI+/5ZLfkfsnq/I/u/2jxoxHEm1ex0idrhdR1R1nvxX0YlqYLYMCOMQNKtQ0aUjk3+Sv w4Qtun0ThPJd6ZObC6lPKZQokt5WP7UsNVq3+UjKx7sRtjS2lket+aNR1eXy7otjbXOrQqpvNQEr vZWSv9lrocI29Rh8SQIxY9yF+LK55KW2eeUvIOl6BI9/LI+qeYLheN3rV0FMzLWvpxKPhghB6Rx0 HjU75jkkoZNgV2KuxVhH5qRfVrDSPMKj4tD1KCSdh1+q3dbK4r/kotwJW/1MnA0VKLzMYuxVZNBD MvGVFcdgwrT5YqgNL8u6Rpd5f3tnCUu9TkSS9nd3kdzEgjjHJyxCoo+FRsN/HBSplhVgOjIY9Mt4 CKNbL9Wcf5UBMTfimZEeQVG9NzklSvSYte86XJtfLD/VdERmS/8ANLqHj+E8WisEO08tdjIf3af5 R+HMbLqBHYc0gPWPKnlDQvK2mfo/R4PTRmMtzcSMZLi4mb7U1xK3xSSN4n5CgAGYBJJspTnArsVY v5p/MLR9DuRpkCSat5gkUNDotnxaYK2wknYkJbxb/blIB/ZqdsIBPJWEanZ32rgat57u4ZLa3YSw aHAW/RtuwNELhgr3ctaUaQU5fYRTmRHGBuU0g9XTUNba3spQ9pBe1NvZfZkWBOJkurjwZeQWKLcB 2Vnr0SZ3Syu3t4beCO3gQRwQoscUa7BVUUUD5AZJUt0b/TLu71dvsTH6tZeH1eFm/eDr/eyFmqPt Jw8MAVNsKtgeOKCULqupR6fZtNwM0zER21spAaWZtkjWviep6AVJ2ByJLFT0zTltbSRbplnurtjL fyU+GSR1CkBT+wqqEUH9kCtTU4gKgazaBUoGn0If7rALy2niV3q8A/lHxJ2qmyPJU4iu4JokmhdZ YZFDxyIQysrCoZSNiCMKobUtXgsLUzyAuxISGBKGSWRtkjQEgcmPiaDqSBU4CVStdDF2Deao9dWY 84LiE0NmP2Y7diOwPxsR+8/aHGiBpVRdZ1GwHDVYjNEuy6jaozoR29WFeUkbeJUMneq9MbVB/pTU PNWoPovle7WK0hCnWPMEXGVIFb/j3tiOSPdMu+/wxijEEkDK55K2CvQ9B0nSfL+lxaZpMIt7SIlq VLO7ueTySOxLO7saszEknMdKYC/cd6/PFVaLUYmYK/wk9+2KovFXYqgPMOjW+t6DqOjXO1vqNtNa ykdQsyFCR7jlUYqwjyXqlzqflbTru82v/S9HUF68bu3JhuV/2M0bjM2JsMU6ySuxV2KuxV57qOo6 docmsNqM621paXTymaTYsLulwOKipYmSZkUKKsRQb5dCQpUd5f8AIGs+cCl95nil0ryuRyg8vkmO 7vATs1+w3hip/uhTyP8Auwj7GYmXUXsEgPXLW1trS2itbWJLe2gRY4IIlCRoiiiqirQKoGwAzFSq YqhdV1XTdJ06fUtTuY7OwtV9S4uZmCIijapJ99hirzrUPNfmrzXyi0b1vLnl1qg6lKnHU7pT3t4p ARaoezyKZD2VOuWwxXzTSSQ6b/g+0KadIl2t1KStrcIWv7u4apNblKtK9Bu0kZIAJd+IJF4HDyS3 NbeYHZtY1ye10+K1HOC2i53foAihKVEKtOa8QxR/5UG55O/VURo3lYSLJqGtST3eo3n94k0pCpAK +lA0UPpwNwDEt8H2y1NqYgd6u13Q9CEMWn2un20N9qDmGCWKFEkiWlZp1ZRVTGlSp/n4jviQFRUe lXOlxRxaPdkW0KhI9OuiZYgqigVJTWZOlKlnA7LhquSLVLTzDFJcLZ3kTWOoNXhby7rJQVJhlHwS DvQfEB9pVwWi0dJdIiM7sFRQSzE0AA6knChJtOlfUbsazNUW4UrpULVFI2+1cMp/blH2a7qngWYY AqbG4wqtNx74qkN4kujCfUNPZRZrzmvdPdgkZ/aeSFj8MT9WIPwMevEktg5KpaFfJrFy+rz1SSEt Fa2EgKyWqnq0qNRlmlG/slAO5ZG6p4bjCqTeY9YvoYbfT9K4treqyfVdNDDkqOQWedx3SCMGRvGn HqcjOVBWZeW9H0/y9o0Gl2NTHFVpZnNZZpnPKWaVv2nkclmOYiUxN174qsNz74qiLCGW7mou0a/b bwHh88VZFirsVdirzbTIv0Z5y8z6Idonni1myXwi1FSJqeP+l287H/WGZOE7Ugp7lyHYq7FUn13z LBps0FhbQSalrt6D9Q0i24maWmxdixCxQr+3K5Cj3NAYymAqK8tfluo1iPzT5rMOo+ZkVVtI4wfq dgiliEtlbd5AXas7jkf2Qg+HMWUyWTOsgrsVdirynUGPmvzbeXl+PU0fy9dtaaNYneM3cAAnvZF6 NIkhaKKv2ApI3bL8UOqQr3+rulwbDToxd6nQFoyaRQK3R7hxXiD+yo+JuwoCRcSlfp2kLbStd3Ep u9SlHGW7cUopNfTiSpEcYP7I+bFjviAqFt/9zV4l4d9JtHrZL2uJlP8AvQfGNP8AdXifj/kOPNU1 muooq1NSOw/jhUlj2l3j6hcS6y/91OvpacoNQLUGvqfOdvj/ANUJXcZEMSUxNx74UIe8jtLyBre6 iSaFqco5AGFQag79wdwcVYrdvqL3EllE0up6Bauv16NqNcMw3+rq7Eeui/C0gb4j9mr1ZRFWSWmq 2t5D61tKJEqValQVYdVdTRlYd1YVHfJKqmf3xVaZ/fFUlef9L3xStdLspPi8J7mM1p/xjhYb+L/6 pqOaom/sbW7kWerQXkY4xXkJCyqOvGpBDLXfg4K+2NKh/wBIaxa/DcwC+iHS4taJJ/s4ZGA2HdHJ P8oxVU8ismr6tfeaHBNvHz03ReYKkRRN/pUoVgCplnXh8ox45j5JWUs3N175Wqw3XviqO0nT59Qk JqUt1PxyePsvvirLIIIoIhFEvFF7fxOKr8VdirsVYH58iXT/ADd5Z1sCkd2bjRLtu1LhPrNszf6s tqUHvJluI0UFMMykOxVjs2tatrmoT6J5QWOW5t2MWpa3MpeysWH2k2I+sXA/3yrfD+2y96p5K5KA zDyr5N0ny5DM1uZLvUrsh9R1a6Ie6uXHQyOAoCr+yiAIo2UDMYm2SfYFdirsVdirzXzZ5F822l7f aj5NuIXg1OX19R0i4IjkWVqCWaxnZZI0eQCpSVCnL4qiprZHIQtpRa63Z6JB9V1DRNU0XixMj3Np NcRtIftO95bfWoXZupZpanrlwyRZWgbjzt5T127bSrbW7L6lHT9IstxGJJeW4to15B/i/wB2NTp8 I3JKHiBW07l1IcBHbgRwqAFC0Gw6AU6DJMSUg1ac38w0iNj6bgSakw7QE/3Vf5piCv8Aq8uh44Ch MvXAAA2A2AGFVpuMVSzVNTuDImnWLUvbgcmlpUQQ9GmatRXtGp+03+SGoCqJtEgs7aO2txxijFFB JJJJqSxO5ZiaknqcKoS8sY5ZjdW0htL+gH1mMA8wvRZVO0i/PcfskHfBSqK67JbusGqoLZ2IWO6U 1tpCegDHeNj/ACv32UtjatarfzySJpto5S5uBylnXrDADRpPDm32U996EKcSqKtxBbW8dvAojhiU JGg6BQKDCq43GKpV5k1W5tNGuHtN76XjbWIPe5uGEMP0eo4r7ZGRoKy3RbK20fR7LS7Yn0LKFIEY 9W4KByb/ACmO598xEoo3XviqZ6Dpc2qT1NVtYz+9k8f8lffFWeRRRwxrFEoSNBRVHQDFV2KuxV2K uxVjH5l6Vc6l5I1RLNOeo2iLqGnKOpurCRbqBQe3OSEKfY4QaVLItc0p9Ei1x7lIdLlt0uxdTMER YXQOHZiaAcTmbfVildhp2veeAslbjQ/J70Pq/FDqGop/xX0e1t2/mNJXH2eA+I488vQJAeiaVpWm 6Tp0Gm6ZbR2dhar6dvbQqERFG9AB77nKUorFXYq7FXYq7FXYq7FWDeaRY6rdS2+oWkN1bxExrFPG si7Gh2YEb4qwi5/LzQoy0mhSz+X5+oFg9Lav+VZyB7en+qin3GSEiFSFR5i8srMdXtf0naSytLNr WnI7yEt+1cWnxSoFVQoMZkAUDoMtjl71TSy1ayv7ZLqynS5tpBVJYmDKfpGXWhS1HVhZwBgplnkY R20CmjSSHooPbpUnsKnElVPToWtkd5nEt5cHndTAUDNSgVQeiKNlH8anAAqKNx74VWG498VQmo6h Bb2cjzJ6qkcBAACZGf4VjAOxLE0328cSqUafpd/pkTTWciNcTfHcWkhPoV/ZjhkA5xKg+FditB9k Ek4AKVH2+twSyi3lDW12a0t5qKzU3JQglXAG54k070xtUUbj3wqlkji+826NZH4orMTanOO1YlEE IP8As7jmP9TKcx6JZobr3yhUTpVrcanfxWkH2nNXfqFUdWPyxV6pY2VvZWsdtAvGOMUHiT3J9ziq virsVdirsVdirsVec+VvyjSzkiXzBeLqmnaVcSHy7pCpwtLeBZWa2edT/fzxxlVBb4Ep8K1+IyMi RSvRsirsVdirsVdirsVdirsVdiqT6x5cgv2M0b+jcnq1Kq1PEfxxVi195d1u1qfQM6D9uH4/+F+1 +GKpNJM8bFXBVh1UihH0HFWLaz5RtLi5k1LSJjpGryfFJPCoaGcj/lpt6qsv+sKP4NkoyIVjltqF 3a6x6fmSMWmpP+50+RSWs5EoCwt5T/uxyKsr0agFAQKm+EwVT03HvliFpuMVWG4xVK7ef9IXv11t 7S2LJZDs77q8/wCtE9qnowwc1TA3HvhVQuVt7mIxXEayxkg8XAIqOhFe48cVQPHUbRibab61b/8A LNcMea/6k25PykrX+YDAq7yhdtd65rWoPG8RiFtp6xSAckMaNcP9ksu/1leh7DMfKbKWVm698rV6 r5E0P9H6Ut1OtLu8Adq9Vj6ov8T/AGYqyXFXYq7FXYq7FXYq7FXYq7FXYq7FXYq7FXYq7FXYq7FX Yq7FVG6srO6XjcwJMvYOoanyriqQah5B0e4Ba2Z7SQ9OJ5p/wLb/AHHFWE+aPy71D6lNBdWseqab IKSoq89utWjO+3WorTFXl13aat5eJeAy6poi9YjWS8tl/wAn9q4jHh/eD/Ky2GWuaom11O1vLdLm 1lWaCQVSRDUHtmQChCajdPPIunQuVeVeVzIpoUhrQ0I6NJ9lfpI+zgKopJEjjWOMBEQBUVdgABQA DCrjPiq03Hviqw3HviqzybNXSZrqu97d3M/+x9Uxx/8AJONcxJGylnnkfSTrevwwOK2sH7+58Cik UX/ZNQZFXuGKuxV2KuxV2KuxV2KuxV2KuxV2KuxV2KuxV2KuxV2KuxV2KuxV2KuxV2Ksa8zeRtM1 pWmjpaagdxcINnP/ABYvf59cVeBecfIWs6BqclzaILO+lJeWI1+p3tP2qgfDJ/lqK/zA5KMyFY3o morKJ1nDQ6qG5X9rLs8ZOyqOzRhRRGXZuvWuZMJAqmRuPfJIWm4xVabj3xVBatqf1PTbq6G7QxO6 DxYKeI+k7YCaCU10eL6hpFlY1qbaCOInrUogBP0nMNXvn5VaC+neXRezrxudSImIPUQgfuh9IJb6 cVZpirsVdirsVdirsVdirsVdirsVdirsVdirsVdirsVdirsVdirsVdirsVdirsVQup6Xp+qWb2d/ As9u/VG7HxBG4PuMVeE/mX+S91bg6jppknht6tBdxAfWrYdwwApJH/NtTxA64QaV5SurXNnOtnq6 rFM54wXaVFvMe1Ca8H/yGPyJzIhktUcbj3yxC0z++KpbqMv1u9sdNG4llFxcDwhtyH3/ANaTgv0n Ksp2S9K/LzyvN5n1+OBlP6OtiJb+QdOAOyV8XIp8qntmOr6RVVVQqgKqiiqNgAOwxVvFXYq7FXYq 7FXYq7FXYq7FXYq7FXYq7FXYq7FXYq7FXYq7FXYq7FXYq7FXYq7FXYq8889/k1oHmSGaS0SOyvJQ fUQoGtpq7/vI+x/yl+44q+evM/5ded/J8xV4GksFNEWcs8VO3pXShvoWQV+WWRyEKkBvtXb4U0x1 k/mklhEf/BIzv/wmWeMFZd+Xf5aeZtfu3mijLG4ZRd6o6lbeKNTtHHX7XGp2G5O5plMpWVfUHlPy rpvlnR49NsRyp8U9wwAeWQ9Xan4DsMiqc4q7FXYq7FXYq7FXYq7FXYq7FXYq7FXYq7FXYq7FXYq7 FXYq7FXYq7FXYq7FXYq7FXYq7FVk3o+k/rcfSofU5048e9a7UxViDf8AKn/r/wAX6B+u17/VOXKo /wCGr9OKsvh9H0k9Hj6NB6fCnHj2pTamKr8VdirsVdirsVdir//Z</xmpGImg:image></rdf:li></rdf:Alt></xmp:Thumbnails></rdf:Description><rdf:Description xmlns:stEvt="http://ns.adobe.com/xap/1.0/sType/ResourceEvent#" xmlns:stRef="http://ns.adobe.com/xap/1.0/sType/ResourceRef#" xmlns:xmpMM="http://ns.adobe.com/xap/1.0/mm/"><xmpMM:InstanceID>xmp.iid:ED7F1174072068118C14DB4015F9F14A</xmpMM:InstanceID><xmpMM:DocumentID>xmp.did:ED7F1174072068118C14DB4015F9F14A</xmpMM:DocumentID><xmpMM:OriginalDocumentID>uuid:64d72a7c-f441-11e0-8528-000d93c1fb48</xmpMM:OriginalDocumentID><xmpMM:DerivedFrom rdf:parseType="Resource"><stRef:instanceID>xmp.iid:0080117407206811ACAFDF14EE1FF095</stRef:instanceID><stRef:documentID>xmp.did:0080117407206811ACAFDF14EE1FF095</stRef:documentID><stRef:originalDocumentID>uuid:64d72a7c-f441-11e0-8528-000d93c1fb48</stRef:originalDocumentID><stRef:renditionClass>proof:pdf</stRef:renditionClass></xmpMM:DerivedFrom><xmpMM:History><rdf:Seq><rdf:li rdf:parseType="Resource"><stEvt:action>saved</stEvt:action><stEvt:instanceID>xmp.iid:FD7F117407206811ACAFDF14EE1FF095</stEvt:instanceID><stEvt:when>2011-10-11T15:47:29-07:00</stEvt:when><stEvt:softwareAgent>Adobe Illustrator CS4</stEvt:softwareAgent><stEvt:changed>/</stEvt:changed></rdf:li><rdf:li rdf:parseType="Resource"><stEvt:action>saved</stEvt:action><stEvt:instanceID>xmp.iid:0080117407206811ACAFDF14EE1FF095</stEvt:instanceID><stEvt:when>2011-10-11T16:10:49-07:00</stEvt:when><stEvt:softwareAgent>Adobe Illustrator CS4</stEvt:softwareAgent><stEvt:changed>/</stEvt:changed></rdf:li><rdf:li rdf:parseType="Resource"><stEvt:action>saved</stEvt:action><stEvt:instanceID>xmp.iid:ED7F1174072068118C14DB4015F9F14A</stEvt:instanceID><stEvt:when>2017-03-14T22:54-04:00</stEvt:when><stEvt:softwareAgent>Adobe Illustrator CS5.1</stEvt:softwareAgent><stEvt:changed>/</stEvt:changed></rdf:li></rdf:Seq></xmpMM:History><xmpMM:RenditionClass>proof:pdf</xmpMM:RenditionClass></rdf:Description><rdf:Description xmlns:xmpRights="http://ns.adobe.com/xap/1.0/rights/"><xmpRights:Marked>True</xmpRights:Marked></rdf:Description><rdf:Description xmlns:dc="http://purl.org/dc/elements/1.1/"><dc:format>image/svg+xml</dc:format><dc:creator><rdf:Seq><rdf:li>Keenan Crane</rdf:li></rdf:Seq></dc:creator><dc:rights><rdf:Alt><rdf:li xml:lang="x-default">This work is licensed under a Creative Commons Attribution-NonCommercial-NoDerivs 3.0 Unported License.</rdf:li></rdf:Alt></dc:rights><dc:title><rdf:Alt><rdf:li xml:lang="x-default">DDG Principal Curvature</rdf:li></rdf:Alt></dc:title></rdf:Description><rdf:Description xmlns:stDim="http://ns.adobe.com/xap/1.0/sType/Dimensions#" xmlns:stFnt="http://ns.adobe.com/xap/1.0/sType/Font#" xmlns:xmpG="http://ns.adobe.com/xap/1.0/g/" xmlns:xmpTPg="http://ns.adobe.com/xap/1.0/t/pg/"><xmpTPg:MaxPageSize rdf:parseType="Resource"><stDim:w>6.372674</stDim:w><stDim:h>4.861111</stDim:h><stDim:unit>Inches</stDim:unit></xmpTPg:MaxPageSize><xmpTPg:NPages>1</xmpTPg:NPages><xmpTPg:HasVisibleTransparency>True</xmpTPg:HasVisibleTransparency><xmpTPg:HasVisibleOverprint>False</xmpTPg:HasVisibleOverprint><xmpTPg:Fonts><rdf:Bag><rdf:li rdf:parseType="Resource"><stFnt:fontName>Times-Bold</stFnt:fontName><stFnt:fontFamily>Times</stFnt:fontFamily><stFnt:fontFace>Bold</stFnt:fontFace><stFnt:fontType>TrueType</stFnt:fontType><stFnt:versionString>10.0d1e3</stFnt:versionString><stFnt:composite>False</stFnt:composite><stFnt:fontFileName>Times.dfont</stFnt:fontFileName></rdf:li></rdf:Bag></xmpTPg:Fonts><xmpTPg:PlateNames><rdf:Seq><rdf:li>Cyan</rdf:li><rdf:li>Magenta</rdf:li><rdf:li>Yellow</rdf:li><rdf:li>Black</rdf:li></rdf:Seq></xmpTPg:PlateNames><xmpTPg:SwatchGroups><rdf:Seq><rdf:li rdf:parseType="Resource"><xmpG:groupName>Default Swatch Group</xmpG:groupName><xmpG:groupType>0</xmpG:groupType></rdf:li></rdf:Seq></xmpTPg:SwatchGroups></rdf:Description></rdf:RDF></x:xmpmeta><?xpacket end="w"?></metadata><g><linearGradient id="SVGID_1_" x1="608.98" x2="627.48" y1="469.627" y2="615.126" gradientTransform="matrix(1 0 0 1 -288 -261)" gradientUnits="userSpaceOnUse"><stop offset="0" style="stop-color:#fff"/><stop offset="1" style="stop-color:#000"/></linearGradient><path fill="url(#SVGID_1_)" d="M325.59,189.898 c-10.894,1.703-30.795,17.932-49.115,28.065c-18.322,10.138-76.014,35.476-75.234,49.896c0.779,14.424,44.439,15.594,70.167,31.187 c25.727,15.593,59.252,46.778,77.963,42.489c18.711-4.288,28.307-21.334,37.032-41.319c12.083-27.678,23.776-44.049,44.438-62.762 c20.658-18.71,35.473-26.117-21.439-36.644C352.489,190.289,338.064,187.95,325.59,189.898z" enable-background="new" opacity=".7"/><g><path fill="#1B1F8A" d="M382.659,160.948c0,0-28.445-21.491-49.306-24.335 c-20.856-2.845-34.881,2.996-52.146,15.486c-14.854,10.745-27.182,30.024-27.182,30.024s-9.797,7.27-35.397,24.02 c-25.6,16.752-38.874,22.123-43.299,32.237c-4.425,10.113,9.166,15.485,31.921,18.015c22.755,2.528,57.521,25.916,89.126,50.567 c31.604,24.652,41.402,31.605,53.412,27.812c12.01-3.792,15.803-25.602,20.858-53.729c5.058-28.129,17.065-57.521,32.235-72.061 c15.17-14.538,27.182-21.809,31.922-24.65c4.74-2.845,11.062-6.954-4.426-11.062c-15.486-4.108-43.93-10.745-43.93-10.745 L382.659,160.948z" enable-background="new" opacity=".2"/><path fill="#1B1F8A" d="M244.704,196.741c0,0,25.543-50.165,65.502-59.326 c16.657-3.819,30.412-1.033,46.912,7.634s26.963,16.834,26.963,16.834s-16.978-5.787-64.47-1.061 C272.118,165.549,244.704,196.741,244.704,196.741z" enable-background="new" opacity=".2"/><path fill="none" stroke="#000" stroke-width=".856" d="M199.351,218.471c0,0,9.165,4.424,15.803,4.424 c6.637,0,17.698-6.795,32.236-6.795c14.539,0,36.661,16.276,64.157,33.659c27.496,17.382,59.418,32.554,59.418,32.554"/><path fill="none" stroke="#000" stroke-width=".856" d="M227.795,200.455c0,0,10.745,1.58,14.538-1.266 c3.793-2.844,12.959-27.497,30.024-27.497c17.067,0,36.11,15.928,60.683,37.926c33.186,29.709,49.619,30.656,49.619,30.656"/><path fill="none" stroke="#000" stroke-width=".856" d="M397.514,214.677c0,0-16.436-1.896-35.082-26.548 c-18.646-24.652-39.188-46.775-59.102-46.775c-6.006,0-11.693,4.188-11.693,4.188"/><path fill="none" stroke="#000" stroke-width=".856" d="M334.62,137.561c16.75,0,33.424,21.243,46.774,36.346 c19.278,21.808,35.081,22.44,35.081,22.44"/><path fill="none" stroke="#000" stroke-width=".856" d="M380.756,160.011c4.91,2.986,9.941,6.27,14.861,9.471 c19.91,12.959,38.557,14.54,38.557,14.54"/><path fill="none" stroke="#000" stroke-width=".856" d="M296.693,307.279c0,0,50.685-81.145,80.909-109.354 c23.703-22.124,43.615-26.864,43.615-26.864"/><path fill="none" stroke="#000" stroke-width=".856" d="M257.502,278.52c0,0,44.191-54.586,60.683-81.226 c12.325-19.911,32.87-36.661,43.933-38.874c11.062-2.212,24.967,4.108,24.967,4.108"/><path fill="none" stroke="#000" stroke-width=".856" d="M228.11,262.4c0,0,14.854-18.963,29.077-49.938 c14.222-30.973,30.737-66.109,58.785-74.904c7.45-2.336,13.866-1.847,19.459-0.063"/><path fill="none" stroke="#000" stroke-width=".856" d="M202.511,256.079c0,0,19.596-21.808,29.709-37.927 c10.112-16.117,20.067-34.448,20.067-34.448"/><path fill="none" stroke="#000" stroke-width=".856" d="M180.703,250.074c28.133-22.126,28.119-21.641,39.507-31.446 c11.376-9.798,22.439-19.438,22.439-19.438"/><path fill="none" stroke="#000" stroke-dasharray="5.709" stroke-width=".856" d="M244.704,196.741 c0,0,26.477-28.153,64-34.37c40.061-6.638,73.244-1.423,73.244-1.423"/><path fill="none" stroke="#000" stroke-width="1.713" d="M382.659,160.948c0,0-28.445-21.491-49.306-24.335 c-20.856-2.845-34.881,2.996-52.146,15.486c-14.854,10.745-27.182,30.024-27.182,30.024s-9.797,7.27-35.397,24.02 c-25.6,16.752-38.874,22.123-43.299,32.237c-4.425,10.113,9.166,15.485,31.921,18.015c22.755,2.528,57.521,25.916,89.126,50.567 c31.604,24.652,41.402,31.605,53.412,27.812c12.01-3.792,15.803-25.602,20.858-53.729c5.058-28.129,17.065-57.521,32.235-72.061 c15.17-14.538,27.182-21.809,31.922-24.65c4.74-2.845,11.062-6.954-4.426-11.062c-15.486-4.108-43.93-10.745-43.93-10.745 L382.659,160.948z"/></g></g><g><path fill="#1B1F8A" d="M233.118,100.715c0,0-30.833-21.333-36.067-22.102 c-20.828-3.059-34.882,2.996-52.147,15.486c-14.854,10.745-27.181,30.024-27.181,30.024s-9.797,7.269-35.397,24.02 c-25.6,16.751-38.874,22.123-43.299,32.237c-4.425,10.113,9.166,15.485,31.921,18.015c6.209,0.689,13.312,2.935,21,6.33 l-0.141-0.324c0,0,14.854-18.963,29.077-49.937c14.222-30.973,30.737-66.109,58.785-74.904c7.45-2.336,14.385-1.532,19.459-0.063 c5.074,1.469,11.988,6.833,19.824,11.954c8.268,5.403,15,9.764,15,9.764L233.118,100.715z" enable-background="new" opacity=".2"/><path fill="#1B1F8A" d="M108.399,138.741c0,0,25.612-49.868,65.503-59.326 c17.716-4.2,26.05-0.866,42.383,10.134c16.333,11,17.324,12.142,17.324,12.142s-3.157-1.976-50.302,1.132 C135.684,105.961,108.399,138.741,108.399,138.741z" enable-background="new" opacity=".2"/><path fill="none" stroke="#000" stroke-width=".856" d="M63.047,160.47c0,0,9.165,4.425,15.803,4.425 c6.637,0,17.698-6.795,32.236-6.795c2.271,0,4.729,0.397,7.362,1.134"/><path fill="none" stroke="#000" stroke-width=".856" d="M91.491,142.455c0,0,10.745,1.58,14.538-1.265 c3.793-2.844,12.958-27.496,30.024-27.496c1.681,0,3.381,0.155,5.104,0.455"/><path fill="none" stroke="#000" stroke-width=".856" d="M170.768,83.608c-1.249-0.168-2.496-0.255-3.74-0.255 c-6.006,0-11.694,4.188-11.694,4.188"/><path fill="none" stroke="#000" stroke-width="1.713" d="M91.807,204.4c0,0,14.854-18.963,29.077-49.938 c14.222-30.973,30.737-66.109,58.785-74.904c7.45-2.336,14.385-1.532,19.459-0.063c5.074,1.469,11.988,6.833,19.824,11.954 c8.268,5.403,15,9.764,15,9.764"/><path fill="none" stroke="#000" stroke-width=".856" d="M66.207,198.079c0,0,19.596-21.808,29.709-37.926 c10.113-16.118,20.068-34.449,20.068-34.449"/><path fill="none" stroke="#000" stroke-width=".856" d="M44.399,192.074c28.133-22.126,28.119-21.641,39.507-31.446 c11.377-9.798,22.439-19.438,22.439-19.438"/><path fill="none" stroke="#000" stroke-dasharray="5.709" stroke-width=".856" d="M108.399,138.741 c0,0,26.477-28.153,64-34.37c25.405-4.209,48.046-3.651,61.21-2.681"/><path fill="none" stroke="#000" stroke-width="1.713" d="M196.452,78.841c-20.858-2.845-34.283,2.769-51.549,15.259 c-14.854,10.745-27.181,30.024-27.181,30.024s-9.797,7.269-35.397,24.02c-25.6,16.751-38.874,22.123-43.299,32.237 c-4.425,10.113,9.166,15.485,31.921,18.016c6.209,0.688,13.312,2.934,21,6.328"/><polygon fill="#D1D4F2" points="63.362 277.882 6 79.719 247.777 21.882 247.777 135.659" enable-background="new" opacity=".8"/><polygon fill="none" stroke="#000" stroke-width="1.713" points="63.362 277.882 6 79.719 247.777 21.882 247.777 135.659"/><path fill="none" stroke="#000" stroke-width="2.3" d="M91.807,204.4c0,0,14.854-18.963,29.077-49.938 c14.222-30.973,30.737-66.109,58.785-74.904c7.45-2.336,14.385-1.532,19.459-0.063c5.074,1.469,11.988,6.833,19.824,11.954 c8.268,5.403,15,9.764,15,9.764"/></g><polygon fill="#FFF" stroke="#000" points="315.889 128.38 307.868 131.428 307.868 141.957 315.889 138.172"/><path fill="none" stroke="#000" stroke-width="1.05" d="M229.258,149.941c2.083-35.453-9.428-64.212-30.683-70.202	c-27.731-7.814-61.546,26.082-75.53,75.708c-8.174,29.011-7.762,56.976-0.468,76.764L229.258,149.941z"/><path fill="#1B1F8A" d="M229.258,149.941c2.083-35.453-9.428-64.212-30.683-70.202	c-27.731-7.814-61.546,26.082-75.53,75.708c-8.174,29.011-7.762,56.976-0.468,76.764L229.258,149.941z" enable-background="new" opacity=".2"/><path d="M184.746,162.015c0.097-0.344,0.153-0.683,0.172-1.003c0.062-1.052-0.28-1.906-0.911-2.083	c-0.823-0.232-1.827,0.773-2.242,2.247c-0.416,1.473-0.084,2.855,0.739,3.087C183.327,164.493,184.331,163.488,184.746,162.015z"/><line x1="183.255" x2="225.319" y1="161.595" y2="111.11" fill="none" stroke="#000"/><g><path d="M184.755,117.426c0-0.413-0.026-0.453-0.422-0.453c-1.067,1.108-2.583,1.103-3.134,1.103v0.528 c0.345,0,1.363,0.01,2.26-0.438v8.918c0,0.62-0.052,0.832-1.606,0.832h-0.551v0.528c0.603-0.051,2.101-0.051,2.789-0.051 s2.187,0,2.789,0.051v-0.528h-0.55c-1.55,0-1.575-0.191-1.575-0.832"/><path d="M194.265,116.187c0.086-0.224,0.086-0.293,0.086-0.31c0-0.19-0.155-0.344-0.345-0.344c-0.12,0-0.241,0.051-0.292,0.155 l-5.974,16.407c-0.085,0.223-0.085,0.292-0.085,0.309c0,0.19,0.155,0.361,0.344,0.361c0.223,0,0.275-0.125,0.378-0.43"/><path d="M193.915,127.773c-0.068,0.241-0.068,0.276-0.068,0.396c0,0.31,0.241,0.465,0.499,0.465c0.517,0,0.62-0.414,0.758-0.964 c0.172-0.62,0.069-0.293,0.81-3.186c1.445,0.053,2.939,0.346,2.939,1.464c0,0.12,0.005,0.206-0.03,0.379 c-0.069,0.276-0.086,0.465-0.086,0.602c0,1.016,0.689,1.705,1.583,1.705c0.551,0,0.999-0.311,1.344-0.896 c0.43-0.724,0.637-1.722,0.637-1.756c0-0.172-0.156-0.172-0.207-0.172c-0.172,0-0.189,0.069-0.241,0.31 c-0.327,1.189-0.723,2.13-1.497,2.13c-0.361,0-0.575-0.223-0.575-0.821c0-0.258,0.081-0.672,0.161-0.965 c0.035-0.154,0.063-0.379,0.063-0.568c0-1.619-2.36-1.739-3.316-1.773c0.568-0.309,1.119-0.774,1.584-1.17 c0.792-0.672,1.291-1.084,1.979-1.377c-0.034,0.086-0.103,0.293-0.103,0.379c0,0.206,0.124,0.586,0.671,0.586 c0.551,0,0.913-0.49,0.913-0.913c0-0.156-0.066-0.623-0.671-0.623c-1.05,0-2.066,0.872-2.824,1.517 c-1.17,0.999-1.584,1.257-2.204,1.464c0.051-0.19,0.258-1.051,0.344-1.344c0.104-0.448,0.31-1.256,0.31-1.343 c0-0.292-0.206-0.464-0.499-0.464c-0.052,0-0.534,0-0.688,0.62"/></g><g><g><g><line x1="307" x2="335.5" y1="141.587" y2="128.75" fill="none"/><polygon fill="#FFF" points="338.075 127.59 335.114 130.707 335.309 128.837 333.777 127.742"/></g><g><line x1="307" x2="335.5" y1="141.587" y2="128.75" fill="none" stroke="#000" stroke-width="3"/><polygon points="343.227 125.271 334.342 134.622 334.922 129.01 330.336 125.727"/></g></g><g><path fill="#FFF" d="M339,152.5"/><path fill="none" stroke="#000" stroke-width="3" d="M339,152.5"/></g><g><path fill="#FFF" d="M307,141.587"/><path fill="none" stroke="#000" stroke-width="3" d="M307,141.587"/></g></g><polygon fill="#FFF" stroke="#000" points="185.339 67.411 177.317 70.459 177.317 80.988 185.339 77.203"/><g><circle cx="307" cy="141.587" r="3"/><g><g><line x1="307" x2="307" y1="141.587" y2="112.254" fill="none"/><polygon fill="#FFF" points="307 109.43 308.625 113.409 307 112.465 305.374 113.409"/></g><g><line x1="307" x2="307" y1="141.587" y2="112.254" fill="none" stroke="#000" stroke-width="3"/><polygon points="307 103.781 311.877 115.721 307 112.887 302.124 115.721"/></g></g></g><g><g><g><line x1="177.5" x2="206" y1="80.587" y2="67.75" fill="none"/><polygon fill="#FFF" points="208.575 66.59 205.614 69.707 205.808 67.837 204.279 66.742"/></g><g><line x1="177.5" x2="206" y1="80.587" y2="67.75" fill="none" stroke="#000" stroke-width="3"/><polygon points="213.725 64.271 204.842 73.622 205.422 68.01 200.836 64.727"/></g></g></g><g><circle cx="177.5" cy="80.587" r="3"/><g><g><line x1="177.5" x2="177.5" y1="80.587" y2="51.254" fill="none"/><polygon fill="#FFF" points="177.5 48.43 179.126 52.409 177.5 51.465 175.874 52.409"/></g><g><line x1="177.5" x2="177.5" y1="80.587" y2="51.254" fill="none" stroke="#000" stroke-width="3"/><polygon points="177.5 42.781 182.378 54.721 177.5 51.887 172.623 54.721"/></g></g></g><rect width="42.25" height="26.5" x="286.25" y="83.587" fill="none"/><text font-family="'Times-Bold'" font-size="17" transform="matrix(1 0 0 1 301.2573 98.459)">n</text><rect width="42.25" height="26.5" x="143.089" y="44.587" fill="none"/><text font-family="'Times-Bold'" font-size="17" transform="matrix(1 0 0 1 158.0962 59.459)">n</text><rect width="42.25" height="26.5" x="286.249" y="141.165" fill="none"/><text font-family="'Times-Bold'" font-size="17" transform="matrix(1 0 0 1 301.2563 156.0371)">p</text><rect width="42.25" height="26.5" x="156.192" y="80.988" fill="none"/><text font-family="'Times-Bold'" font-size="17" transform="matrix(1 0 0 1 171.1992 95.8604)">p</text></svg>