<svg xmlns="http://www.w3.org/2000/svg" xmlns:xlink="http://www.w3.org/1999/xlink" id="Layer_1" width="204.993" height="109" x="0" y="0" enable-background="new 0 0 204.993 109" version="1.1" viewBox="0 0 204.993 109" xml:space="preserve"><path fill="none" stroke="#F5B233" stroke-miterlimit="10" d="M100.263,97c1.592-2.646,2.508-5.747,2.507-9.062	c0-3.524-1.035-6.806-2.817-9.559"/><polyline fill="none" stroke="#334DCC" stroke-linecap="round" stroke-linejoin="round" stroke-miterlimit="10" stroke-width="2" points="-43.84 -112.005 -2.557 -18.194 41.169 62.499 85.16 87.938 121.464 64.486 152.867 35.866 214.16 7.644"/><g><g><line x1="41.169" x2="42.035" y1="62.499" y2="63" fill="none" stroke="#334DCC" stroke-linecap="round" stroke-linejoin="round" stroke-width="2"/><line x1="44.612" x2="150.701" y1="64.49" y2="125.84" fill="none" stroke="#334DCC" stroke-dasharray="1.985 2.977" stroke-linecap="round" stroke-linejoin="round" stroke-width="2"/><line x1="151.99" x2="152.855" y1="126.585" y2="127.086" fill="none" stroke="#334DCC" stroke-linecap="round" stroke-linejoin="round" stroke-width="2"/></g></g><g><defs><rect id="SVGID_1_" width="13" height="16" x="106.493" y="78.938"/></defs><clipPath id="SVGID_2_"><use overflow="visible" xlink:href="#SVGID_1_"/></clipPath><g clip-path="url(#SVGID_2_)"><text fill="#F5B233" font-family="'CMMI10'" font-size="17.933" transform="matrix(1 0 0 1 105.7661 91.7627)">θ</text></g><g clip-path="url(#SVGID_2_)"><text fill="#F5B233" font-family="'CMMI7'" font-size="12.553" transform="matrix(1 0 0 1 114.1851 94.4531)">i</text></g></g><circle cx="85.16" cy="87.938" r="2.581" fill="#FFF" stroke="#000" stroke-linecap="round" stroke-linejoin="round" stroke-miterlimit="10"/><circle cx="121.91" cy="63.688" r="2.581" fill="#FFF" stroke="#000" stroke-linecap="round" stroke-linejoin="round" stroke-miterlimit="10"/><circle cx="41.169" cy="62.499" r="2.581" fill="#FFF" stroke="#000" stroke-linecap="round" stroke-linejoin="round" stroke-miterlimit="10"/><circle cx="152.867" cy="35.866" r="2.581" fill="#FFF" stroke="#000" stroke-linecap="round" stroke-linejoin="round" stroke-miterlimit="10"/><circle cx="-2.581" cy="-18.001" r="2.581" fill="#FFF" stroke="#000" stroke-linecap="round" stroke-linejoin="round" stroke-miterlimit="10"/><circle cx="214.16" cy="7.616" r="2.581" fill="#FFF" stroke="#000" stroke-linecap="round" stroke-linejoin="round" stroke-miterlimit="10"/><g><defs><rect id="SVGID_3_" width="16" height="12" x="70.623" y="92.327"/></defs><clipPath id="SVGID_4_"><use overflow="visible" xlink:href="#SVGID_3_"/></clipPath><g clip-path="url(#SVGID_4_)"><text font-family="'CMBX10'" font-size="17.933" transform="matrix(1 0 0 1 70.4639 100.75)">v</text></g><g clip-path="url(#SVGID_4_)"><text font-family="'CMMI7'" font-size="12.553" transform="matrix(1 0 0 1 81.3477 103.4404)">i</text></g></g><g><defs><rect id="SVGID_5_" width="34" height="12" x="12.493" y="67"/></defs><clipPath id="SVGID_6_"><use overflow="visible" xlink:href="#SVGID_5_"/></clipPath><g clip-path="url(#SVGID_6_)"><text font-family="'CMBX10'" font-size="17.933" transform="matrix(1 0 0 1 12.9546 75.4238)">v</text></g><g clip-path="url(#SVGID_6_)"><text font-family="'CMMI7'" font-size="12.553" transform="matrix(1 0 0 1 23.8394 78.1143)">i</text></g><g clip-path="url(#SVGID_6_)"><text font-family="'CMSY7'" font-size="12.553" transform="matrix(1 0 0 1 28.9136 78.1143)">−</text></g><g clip-path="url(#SVGID_6_)"><text font-family="'CMR7'" font-size="12.553" transform="matrix(1 0 0 1 40.1196 78.1143)">1</text></g></g><g><defs><rect id="SVGID_7_" width="33" height="13" x="126.491" y="63.688"/></defs><clipPath id="SVGID_8_"><use overflow="visible" xlink:href="#SVGID_7_"/></clipPath><g clip-path="url(#SVGID_8_)"><text font-family="'CMBX10'" font-size="17.933" transform="matrix(1 0 0 1 126.2534 72.1123)">v</text></g><g clip-path="url(#SVGID_8_)"><text font-family="'CMMI7'" font-size="12.553" transform="matrix(1 0 0 1 137.1372 74.8027)">i</text></g><g clip-path="url(#SVGID_8_)"><text font-family="'CMR7'" font-size="12.553" transform="matrix(1 0 0 1 142.2104 74.8027)">+1</text></g></g></svg>